<?xml version="1.0" encoding="UTF-8" standalone="no"?>
<!DOCTYPE svg PUBLIC "-//W3C//DTD SVG 1.1//EN" "http://www.w3.org/Graphics/SVG/1.1/DTD/svg11.dtd">
<svg width="100%" height="100%" viewBox="0 0 20 20" version="1.1" xmlns="http://www.w3.org/2000/svg" xmlns:xlink="http://www.w3.org/1999/xlink" xml:space="preserve" xmlns:serif="http://www.serif.com/" style="fill-rule:evenodd;clip-rule:evenodd;stroke-linecap:round;stroke-linejoin:round;">
    <g transform="matrix(1,0,0,1.208333,-2,-2.875)">
        <path d="M18,5.828L18,12.172C18,12.629 17.552,13 17,13L7,13C6.448,13 6,12.629 6,12.172L6,5.828C6,5.371 6.448,5 7,5L17,5C17.552,5 18,5.371 18,5.828Z" style="fill:none;stroke:black;stroke-width:2px;"/>
    </g>
    <g transform="matrix(1,0,0,-1,2.497512,28.667948)">
        <circle cx="7.5" cy="13.5" r="0.5"/>
    </g>
    <g transform="matrix(0.833333,0,0,0.833333,2.166773,1.332164)">
        <path d="M6,19L12.8,19" style="fill:none;fill-rule:nonzero;stroke:black;stroke-width:0.48px;"/>
    </g>
    <g transform="matrix(0.4048,0,0,0.833333,6.182432,0.66046)">
        <path d="M6,19L12.8,19" style="fill:none;fill-rule:nonzero;stroke:black;stroke-width:0.5px;"/>
    </g>
    <g transform="matrix(0.833333,0,0,0.899034,0,-0.197103)">
        <path d="M20,5.225L20,18.775C20,20.003 18.925,21 17.6,21L6.4,21C5.075,21 4,20.003 4,18.775L4,5.225C4,3.997 5.075,3 6.4,3L17.6,3C18.925,3 20,3.997 20,5.225Z" style="fill:none;stroke:black;stroke-width:2px;"/>
    </g>
</svg>
