<svg xmlns="http://www.w3.org/2000/svg" viewBox="0 0 512 512" fill="#7c3aed">
  <!-- Bluesky-style butterfly: four wings meeting at center -->
  <!-- Left upper wing -->
  <path d="M256 230 C256 230 90 200 60 300 C130 280 220 250 256 230 Z" />
  <!-- Right upper wing -->
  <path d="M256 230 C292 250 382 280 452 300 C422 200 256 230 256 230 Z" />
  <!-- Left lower wing -->
  <path d="M256 282 C230 300 150 340 100 420 C160 380 240 330 256 282 Z" />
  <!-- Right lower wing -->
  <path d="M256 282 C272 330 352 380 412 420 C362 340 282 300 256 282 Z" />
  <!-- Pencil in center pointing down (eraser, ferrule, body, tip) -->
  <rect x="232" y="56" width="48" height="32" rx="6" />
  <rect x="224" y="88" width="64" height="24" rx="4" />
  <rect x="232" y="112" width="48" height="218" rx="6" />
  <path d="M232 330 L256 512 L280 330 Z" />
</svg>
