<svg xmlns="http://www.w3.org/2000/svg" shape-rendering="geometricPrecision" text-rendering="geometricPrecision" image-rendering="optimizeQuality" fill-rule="evenodd" clip-rule="evenodd" viewBox="0 0 512 512">
  <defs>
    <linearGradient id="artsky-purple-pwa" x1="0%" y1="0%" x2="100%" y2="100%">
      <stop offset="0%" stop-color="#8B52EE"/>
      <stop offset="100%" stop-color="#7D55FC"/>
    </linearGradient>
    <!-- 3D-style purple glow around butterfly (like Bluesky’s blue shadow) -->
    <filter id="purpleShadow" x="-40%" y="-40%" width="180%" height="180%">
      <feDropShadow dx="0" dy="2" stdDeviation="8" flood-color="#5a3bb8" flood-opacity="0.5"/>
      <feDropShadow dx="0" dy="0" stdDeviation="12" flood-color="#8B52EE" flood-opacity="0.7"/>
      <feDropShadow dx="0" dy="0" stdDeviation="6" flood-color="#7D55FC" flood-opacity="0.9"/>
    </filter>
  </defs>
  <!-- Full rect so no transparent (white) area; purple gradient everywhere -->
  <rect width="512" height="512" fill="url(#artsky-purple-pwa)"/>
  <!-- Black butterfly with purple shadow, scaled and centered -->
  <g transform="translate(256, 256) scale(0.72) translate(-255.9995, -226.133)">
    <path fill="#000" filter="url(#purpleShadow)" fill-rule="nonzero" d="M110.985 30.442c58.695 44.217 121.837 133.856 145.013 181.961 23.176-48.105 86.322-137.744 145.016-181.961 42.361-31.897 110.985-56.584 110.985 21.96 0 15.681-8.962 131.776-14.223 150.628-18.272 65.516-84.873 82.228-144.112 72.116 103.55 17.68 129.889 76.238 73 134.8-108.04 111.223-155.288-27.905-167.385-63.554-3.489-10.262-2.991-10.498-6.561 0-12.098 35.649-59.342 174.777-167.382 63.554-56.89-58.562-30.551-117.12 72.999-134.8-59.239 10.112-125.84-6.6-144.112-72.116C8.962 184.178 0 68.083 0 52.402c0-78.544 68.633-53.857 110.985-21.96z"/>
  </g>
</svg>
